<svg id="Layer_1" data-name="Layer 1" xmlns="http://www.w3.org/2000/svg" viewBox="0 0 31.55 29.02"><defs><style>.cls-1{fill:none;stroke:#fff;stroke-linecap:round;stroke-linejoin:round;}</style></defs><title>goverment</title><polygon class="cls-1" points="15.59 0.5 29.74 10.07 1.73 10.07 15.59 0.5"/><polyline class="cls-1" points="3.13 10 3.12 12.29 28.5 12.43 28.52 10.13"/><polyline class="cls-1" points="4.47 12.36 4.47 13.73 5.22 13.73 5.22 22.27 4.47 22.27 4.47 23.53 8.89 23.53 8.89 22.44 8.09 22.44 8.09 13.91 8.89 13.91 8.89 12.36"/><polyline class="cls-1" points="16.84 12.36 16.84 13.73 17.58 13.73 17.58 22.27 16.84 22.27 16.84 23.53 21.25 23.53 21.25 22.44 20.45 22.44 20.45 13.91 21.25 13.91 21.25 12.36"/><polyline class="cls-1" points="22.61 12.36 22.61 13.73 23.35 13.73 23.35 22.27 22.61 22.27 22.61 23.53 27.02 23.53 27.02 22.44 26.22 22.44 26.22 13.91 27.02 13.91 27.02 12.36"/><polyline class="cls-1" points="10.66 12.36 10.66 13.73 11.4 13.73 11.4 22.27 10.66 22.27 10.66 23.53 15.07 23.53 15.07 22.44 14.27 22.44 14.27 13.91 15.07 13.91 15.07 12.36"/><rect class="cls-1" x="2.71" y="23.53" width="26.21" height="1.98"/><rect class="cls-1" x="0.5" y="25.51" width="30.55" height="3.01"/><circle class="cls-1" cx="15.82" cy="5.97" r="1.62"/></svg>