<svg id="Layer_1" data-name="Layer 1" xmlns="http://www.w3.org/2000/svg" viewBox="0 0 26.95 29.94"><title>inter</title><path d="M5.41,24.79a3,3,0,1,1,3-3A3,3,0,0,1,5.41,24.79Zm0-5.2a2.22,2.22,0,1,0,2.22,2.22A2.23,2.23,0,0,0,5.41,19.59Z" transform="translate(-2.44 -0.74)"/><path d="M26.41,24.79a3,3,0,1,1,3-3A3,3,0,0,1,26.41,24.79Zm0-5.2a2.22,2.22,0,1,0,2.22,2.22A2.23,2.23,0,0,0,26.41,19.59Z" transform="translate(-2.44 -0.74)"/><path d="M26.41,13a3,3,0,1,1,3-3A3,3,0,0,1,26.41,13Zm0-5.2A2.22,2.22,0,1,0,28.64,10,2.23,2.23,0,0,0,26.41,7.8Z" transform="translate(-2.44 -0.74)"/><path d="M5.41,13a3,3,0,1,1,3-3A3,3,0,0,1,5.41,13Zm0-5.2A2.22,2.22,0,1,0,7.64,10,2.23,2.23,0,0,0,5.41,7.8Z" transform="translate(-2.44 -0.74)"/><path d="M15.82,6.69a3,3,0,1,1,3-3A3,3,0,0,1,15.82,6.69Zm0-5.2A2.22,2.22,0,1,0,18,3.72,2.23,2.23,0,0,0,15.82,1.49Z" transform="translate(-2.44 -0.74)"/><path d="M24.34,20.62a.37.37,0,0,1-.32-.18l-2.63-4.34a.37.37,0,0,1,0-.38l2.24-3.84H20a.37.37,0,1,1,0-.75h4.25a.37.37,0,0,1,.32.56l-2.45,4.21,2.51,4.15a.37.37,0,0,1-.32.57Z" transform="translate(-2.44 -0.74)"/><path d="M7.37,20.62A.37.37,0,0,1,7,20.06l2.51-4.15L7.11,11.7a.37.37,0,0,1,.32-.56h4.25a.37.37,0,0,1,0,.75H8.08l2.24,3.84a.37.37,0,0,1,0,.38L7.69,20.44A.37.37,0,0,1,7.37,20.62Z" transform="translate(-2.44 -0.74)"/><path d="M17.92,10.4a.37.37,0,0,1-.33-.19L15.81,7.06l-1.88,3.16a.37.37,0,0,1-.64-.38L15.5,6.13a.43.43,0,0,1,.33-.18.38.38,0,0,1,.32.19l2.1,3.71a.38.38,0,0,1-.14.51A.37.37,0,0,1,17.92,10.4Z" transform="translate(-2.44 -0.74)"/><path d="M5.41,19.59A.37.37,0,0,1,5,19.22V12.63a.37.37,0,1,1,.75,0v6.59A.37.37,0,0,1,5.41,19.59Z" transform="translate(-2.44 -0.74)"/><path d="M7.57,9a.37.37,0,0,1-.19-.7l6-3.49a.37.37,0,1,1,.37.65l-6,3.49A.37.37,0,0,1,7.57,9Z" transform="translate(-2.44 -0.74)"/><path d="M24.34,8.83a.38.38,0,0,1-.19,0L18.23,5.41a.37.37,0,0,1,.37-.65l5.92,3.38a.37.37,0,0,1-.19.7Z" transform="translate(-2.44 -0.74)"/><path d="M26.41,19.59a.37.37,0,0,1-.37-.37V12.63a.37.37,0,0,1,.75,0v6.59A.37.37,0,0,1,26.41,19.59Z" transform="translate(-2.44 -0.74)"/><path d="M23.31,30.68H8.23a.37.37,0,0,1-.37-.32,7.55,7.55,0,0,1,1.55-5.56c1.36-1.58,3.5-2.39,6.36-2.41h.06c2.78,0,4.88.78,6.24,2.33a7.68,7.68,0,0,1,1.61,5.63A.37.37,0,0,1,23.31,30.68ZM8.57,29.93H23a6.87,6.87,0,0,0-1.46-4.72c-1.22-1.39-3.15-2.08-5.73-2.07s-4.58.73-5.79,2.14A6.75,6.75,0,0,0,8.57,29.93Z" transform="translate(-2.44 -0.74)"/><path d="M15.77,26h0a.37.37,0,0,1-.31-.16l-1.85-2.72a.37.37,0,1,1,.62-.42L15.78,25l1.62-2.28a.37.37,0,0,1,.61.43l-1.94,2.72A.37.37,0,0,1,15.77,26Z" transform="translate(-2.44 -0.74)"/><path d="M15.81,22.81a.37.37,0,0,1,0-.75c.14,0,3.54-.31,3.4-4.61A4,4,0,0,0,18,14.38a3,3,0,0,0-2.16-.66.37.37,0,0,1-.1-.74,3.8,3.8,0,0,1,2.74.83,4.72,4.72,0,0,1,1.43,3.62c.16,5-4.06,5.38-4.1,5.38Z" transform="translate(-2.44 -0.74)"/><path d="M15.8,22.81h0s-4.26-.34-4.1-5.38a4.72,4.72,0,0,1,1.43-3.62A3.79,3.79,0,0,1,15.84,13a.37.37,0,0,1-.1.74,3.08,3.08,0,0,0-2.17.67,4,4,0,0,0-1.16,3.06c-.13,4.31,3.26,4.6,3.4,4.61a.37.37,0,0,1,0,.75Z" transform="translate(-2.44 -0.74)"/></svg>