<svg id="Layer_1" data-name="Layer 1" xmlns="http://www.w3.org/2000/svg" viewBox="0 0 19.02 29.19"><defs><style>.cls-1,.cls-2{fill:none;stroke:#000;stroke-miterlimit:10;}.cls-1{stroke-linecap:round;}</style></defs><title>norma</title><path class="cls-1" d="M6.73,28.45V5.6l14.1-4.23v2l3.92-1.2V25L10.43,29.36s-2.56.3-3.7-.9" transform="translate(-6.23 -0.7)"/><polyline class="cls-2" points="4.2 28.66 4.2 5.73 14.6 2.64"/><path class="cls-2" d="M6.73,5.6s1,1.62,3.7.83" transform="translate(-6.23 -0.7)"/><path class="cls-1" d="M8.58,9.07a2.29,2.29,0,0,1-1.85-.3" transform="translate(-6.23 -0.7)"/><path class="cls-1" d="M8.58,12.12a2.29,2.29,0,0,1-1.85-.3" transform="translate(-6.23 -0.7)"/><path class="cls-1" d="M8.58,14.94a2.29,2.29,0,0,1-1.85-.3" transform="translate(-6.23 -0.7)"/><path class="cls-1" d="M8.58,17.88a2.29,2.29,0,0,1-1.85-.3" transform="translate(-6.23 -0.7)"/><path class="cls-1" d="M8.58,20.81a2.29,2.29,0,0,1-1.85-.3" transform="translate(-6.23 -0.7)"/><path class="cls-1" d="M8.58,23.74a2.29,2.29,0,0,1-1.85-.3" transform="translate(-6.23 -0.7)"/><path class="cls-1" d="M8.58,26.68a2.29,2.29,0,0,1-1.85-.3" transform="translate(-6.23 -0.7)"/><polygon class="cls-2" points="7.58 9.48 15.62 7.41 15.62 10.38 7.58 12.34 7.58 9.48"/><line class="cls-1" x1="7.75" y1="15.39" x2="11.27" y2="14.62"/><line class="cls-1" x1="13.17" y1="14.11" x2="15.17" y2="13.63"/><line class="cls-1" x1="11.6" y1="17.01" x2="15.12" y2="16.24"/><line class="cls-1" x1="7.75" y1="17.99" x2="9.75" y2="17.5"/></svg>