<svg id="Layer_1" data-name="Layer 1" xmlns="http://www.w3.org/2000/svg" viewBox="0 0 350 110"><title>Egov</title><polygon points="105.09 110 350 110 350 0 130.58 0 105.09 110" fill="#424376"/><text transform="translate(137.57 51.96)" font-size="15" fill="#fff" font-family="Panton-Bold, Panton" font-weight="700" letter-spacing="0.03em">“Elekt<tspan x="41.91" y="0" letter-spacing="0.01em">r</tspan><tspan x="47.38" y="0">on hukum</tspan><tspan x="115.27" y="0" letter-spacing="0.02em">a</tspan><tspan x="123.37" y="0">t”</tspan><tspan x="-4.14" y="18">tizimini ri</tspan><tspan x="59.48" y="18" letter-spacing="0.01em">v</tspan><tspan x="67.38" y="18">ojla</tspan><tspan x="91.88" y="18" letter-spacing="0.02em">n</tspan><tspan x="100.49" y="18">tirish mar</tspan><tspan x="166.92" y="18" letter-spacing="0.02em">k</tspan><tspan x="175.08" y="18">azi</tspan></text><polygon points="103.25 110 0 110 0 0 128.53 0 103.25 110" fill="#2c2d4f"/><path d="M38.9,43.46,36.8,46.6s-4.72-2.53-9.09.44c-3.54,2.4-3.23,4.81-3.23,4.81H36.19v2.8H24.35s-1.09,8.59,8.7,8.56A16.17,16.17,0,0,0,36.71,63L37,66.41s-7.89,2-13.23-2.33A12.13,12.13,0,0,1,19.59,52.2a11.4,11.4,0,0,1,7.08-8.74A17.32,17.32,0,0,1,38.9,43.46Z" fill="#fff"/><path d="M56.35,40.81l1.57,1.52-2.68,2.85s-1.88,3.18-1.88,3.88c0,0-2.14-3.68-4.41-3.65-3.65,0-5.8,2.1-5.83,6.23,0,3.44,2.33,5.56,3.15,5.77,2,.49,4.69.15,6.09-1.25l.47,4.08s-2.1,1.22-6.5,1.14c-.74,0-3.3.64-3.5,1.69s.47,1.44,6.25.9c2.63-.24,5.08-.29,5.08-.29a14.51,14.51,0,0,0,2.3,3.47,23.23,23.23,0,0,0,3,2.45,6.76,6.76,0,0,1-2.68,6.18,14.35,14.35,0,0,1-9.73,2.33c-2.39-.17-7.46-1.92-8.19-3l2.42-3.55s4.31,2.68,7.4,2.68c0,0,4.19.52,6-2s-1.21-4.64-1.54-4.81c-1.17-.58-5.86.73-9.82.61a4,4,0,0,1-4-3.7c0-2.07,2.21-3.67,4.72-4.14a8.56,8.56,0,0,1-4.72-4.46A11.5,11.5,0,0,1,39.16,48c1.08-3.2,4.66-5.18,6.18-5.71s6.51-.61,8.61,1.08Z" fill="#fff"/><path d="M73.42,54.14c0,.41.06.82.06,1.24,0,5.44-3,9.85-6.8,9.85s-6.8-4.41-6.8-9.85,3-9.85,6.8-9.85a5.5,5.5,0,0,1,3.95,1.83L68.41,42a10.36,10.36,0,0,0-1.69-.14c-6.47,0-11.71,6-11.71,13.37S60.25,68.6,66.72,68.6a11.49,11.49,0,0,0,10-6.44Z" fill="#fff"/><polygon points="71.91 42.38 76.73 42.38 83.56 60.33 90.67 42.38 95.27 42.38 83.85 68.6 83.15 68.6 71.91 42.38" fill="#fff"/></svg>