<svg id="Layer_1" data-name="Layer 1" xmlns="http://www.w3.org/2000/svg" viewBox="0 0 350 110"><title>MyGov</title><polygon points="105.09 110 350 110 350 0 130.58 0 105.09 110" fill="#424376"/><text transform="translate(139.38 52.47)" font-size="15" fill="#fff" font-family="Panton-Bold, Panton" font-weight="700" letter-spacing="-0.08em">Y<tspan x="8.48" y="0" letter-spacing="0.03em">agona i</tspan><tspan x="57.98" y="0" letter-spacing="0.02em">n</tspan><tspan x="66.59" y="0" letter-spacing="0.03em">te</tspan><tspan x="81.23" y="0" letter-spacing="0.02em">r</tspan><tspan x="86.77" y="0" letter-spacing="0.03em">akti</tspan><tspan x="113.2" y="0" letter-spacing="0em">v</tspan><tspan x="120.94" y="0" xml:space="preserve" letter-spacing="0.03em"> d</tspan><tspan x="133.11" y="0" letter-spacing="0.02em">a</tspan><tspan x="141.14" y="0" letter-spacing="0.03em">vl</tspan><tspan x="153.18" y="0" letter-spacing="0.02em">a</tspan><tspan x="161.28" y="0" letter-spacing="0.03em">t </tspan><tspan letter-spacing="0.03em"><tspan x="-4.28" y="18">xizm</tspan><tspan x="27.78" y="18" letter-spacing="0.02em">a</tspan><tspan x="35.88" y="18">tlari portali</tspan></tspan></text><polygon points="103.25 110 0 110 0 0 128.53 0 103.25 110" fill="#2c2d4f"/><polygon points="44.23 44.33 66.37 44.33 66.37 39.29 38.85 39.29 38.85 68.08 44.23 68.08 44.23 44.33" fill="#fff"/><polygon points="37.58 38.18 55.77 38.18 55.77 32.69 32.84 32.69 32.84 55.81 37.58 55.81 37.58 38.18" fill="#fff"/><polygon points="31.73 31.76 42.38 31.76 42.38 27.05 26.77 27.05 26.77 43.41 31.73 43.41 31.73 31.76" fill="#fff"/><path d="M45.55,45.64V83.85H81.43V45.64Zm29.26,9.45A77.75,77.75,0,0,0,68,62.3c-.77,1-2.35,2.84-3.7,4.86a73.67,73.67,0,0,0-4.13,6.93c-.35,1.14-2.45,1.55-3.67.51s-1.44-2.2-2.07-2.86a11.8,11.8,0,0,1-1.33-2.08,1.74,1.74,0,0,1-.48-2.06,3.7,3.7,0,0,1,2.16-1.42s1.07-.4,1.61.33A19.6,19.6,0,0,1,57.94,69c0,.12.26.84.51.81s4-5.61,4.5-6.2c1.53-1.72,9.74-9.62,12.34-10.2Z" fill="#fff"/></svg>