<svg id="Layer_1" data-name="Layer 1" xmlns="http://www.w3.org/2000/svg" viewBox="0 0 350 110"><title>Strategiya</title><polygon points="105.09 110 350 110 350 0 130.58 0 105.09 110" fill="#424376"/><text transform="translate(141.22 26.7)" font-size="13.67" fill="#fff" font-family="Panton-Regular, Panton" letter-spacing="0.03em">201<tspan x="23.71" y="0" letter-spacing="-0.01em">7</tspan><tspan x="30.66" y="0" letter-spacing="0.01em">-</tspan><tspan x="36.59" y="0">2021 yilla</tspan><tspan x="96.91" y="0" letter-spacing="0.01em">r</tspan><tspan x="101.65" y="0" letter-spacing="0.02em">da</tspan><tspan x="-3.61" y="16.4">O</tspan><tspan x="5.8" y="16.4" letter-spacing="0.02em">’</tspan><tspan x="8.71" y="16.4" letter-spacing="0.02em">zbekiston </tspan><tspan x="72.37" y="16.4" letter-spacing="0.02em">R</tspan><tspan x="81.39" y="16.4">espubli</tspan><tspan x="125.56" y="16.4" letter-spacing="0.02em">k</tspan><tspan x="132.8" y="16.4">asining</tspan><tspan x="-7.22" y="32.8">ri</tspan><tspan x="0.87" y="32.8" letter-spacing="0.01em">v</tspan><tspan x="7.94" y="32.8">ojla</tspan><tspan x="29.25" y="32.8" letter-spacing="0.02em">n</tspan><tspan x="37" y="32.8" letter-spacing="0.02em">tirishning bes</tspan><tspan x="120.8" y="32.8" letter-spacing="0.02em">h</tspan><tspan x="128.58" y="32.8">ta ustu</tspan><tspan x="172.79" y="32.8" letter-spacing="0.01em">v</tspan><tspan x="179.86" y="32.8">o</tspan><tspan x="187.57" y="32.8" letter-spacing="0em">r</tspan><tspan x="192.26" y="32.8"> </tspan><tspan x="-10.83" y="49.21">y</tspan><tspan x="-2.95" y="49.21" letter-spacing="0em">o’</tspan><tspan x="7.16" y="49.21">nalishi b</tspan><tspan x="57.91" y="49.21" letter-spacing="0em">o</tspan><tspan x="65.33" y="49.21" letter-spacing="0.01em">’</tspan><tspan x="68.15" y="49.21">yicha ha</tspan><tspan x="120.47" y="49.21" letter-spacing="0.01em">r</tspan><tspan x="125.25" y="49.21">a</tspan><tspan x="132.59" y="49.21" letter-spacing="0.02em">k</tspan><tspan x="139.84" y="49.21" letter-spacing="0.02em">a</tspan><tspan x="147.1" y="49.21">tla</tspan><tspan x="162.85" y="49.21" letter-spacing="0em">r</tspan><tspan x="167.54" y="49.21"> </tspan><tspan x="-14.43" y="65.61">st</tspan><tspan x="-2.06" y="65.61" letter-spacing="0.01em">r</tspan><tspan x="2.72" y="65.61" letter-spacing="0.02em">a</tspan><tspan x="9.98" y="65.61">tegiyasi</tspan></text><polygon points="103.25 110 0 110 0 0 128.53 0 103.25 110" fill="#2c2d4f"/><path d="M71.29,84.66A3,3,0,0,0,66.78,86a9.62,9.62,0,0,0-.49,3.28c0,.42.08,1.12.21,1.8a3.14,3.14,0,0,0,1.16,2,3,3,0,0,0,4.72-1.54,9.69,9.69,0,0,0,.15-4.7A3.42,3.42,0,0,0,71.29,84.66ZM70.74,91a1.33,1.33,0,0,1-1.21,1.1A1.41,1.41,0,0,1,68.29,91a8.41,8.41,0,0,1-.19-3.17,5.5,5.5,0,0,1,.27-1.3,1.18,1.18,0,0,1,1.2-.85,1.23,1.23,0,0,1,1.17.91c.18.73.27,1.48.41,2.22C71,89.59,70.93,90.33,70.74,91Z" fill="#fff"/><path d="M37.14,84.66a3,3,0,0,0-4.43,1.2A7.55,7.55,0,0,0,32.19,89a6.44,6.44,0,0,0,.57,3.18A3.07,3.07,0,0,0,37,93.28a3,3,0,0,0,1.27-1.86,10.11,10.11,0,0,0,0-4.8A3.21,3.21,0,0,0,37.14,84.66Zm-.48,6.2a2.33,2.33,0,0,1-.48.9,1,1,0,0,1-1.59,0,2.28,2.28,0,0,1-.58-1.3,9.54,9.54,0,0,1,.1-3.69,1.28,1.28,0,0,1,2.49-.2,2.35,2.35,0,0,1,.21.69c.06.5.09,1,.15,1.74C36.89,89.49,36.82,90.19,36.67,90.87Z" fill="#fff"/><path d="M62.12,91.93l.27-.31c.41-.45.84-.88,1.22-1.35a6.33,6.33,0,0,0,1.5-2.44,2.75,2.75,0,0,0-.73-3,3,3,0,0,0-2.19-.72,3,3,0,0,0-2.82,3.15c.35,0,.68,0,1,0s.64-.06.66-.5a.84.84,0,0,1,.09-.26,1.28,1.28,0,0,1,1.62-.77,1.23,1.23,0,0,1,.82,1.53,3.8,3.8,0,0,1-1,1.72c-1,1.11-2.1,2.21-3.19,3.28a1.22,1.22,0,0,0-.33,1.21h4.47c.53,0,1.06,0,1.58,0,.09,0,.27-.1.27-.16,0-.45,0-.91,0-1.41Z" fill="#fff"/><path d="M76.47,91.95c.47-.52.89-.94,1.28-1.39a7.89,7.89,0,0,0,1.62-2.37,3,3,0,0,0,0-2.59,2.9,2.9,0,0,0-3.68-1.28A3,3,0,0,0,73.73,87c0,.21.06.29.27.28s.69,0,1,0,.3-.08.34-.29a2.28,2.28,0,0,1,.2-.58,1.26,1.26,0,0,1,1.6-.63,1.22,1.22,0,0,1,.8,1.39A3.38,3.38,0,0,1,77,89q-1.61,1.72-3.27,3.39a1,1,0,0,0-.32.89c0,.18.06.27.26.27h5.85c.08,0,.23-.1.24-.16,0-.45,0-.91,0-1.39Z" fill="#fff"/><path d="M28.22,91.66c.77-.93,1.57-1.82,2.28-2.79A3.24,3.24,0,0,0,31,86.18a2.58,2.58,0,0,0-1.67-1.85,3.05,3.05,0,0,0-4.16,2.93c.48,0,.94,0,1.4,0,.07,0,.17-.12.2-.21s.15-.48.26-.71a1.24,1.24,0,0,1,1.47-.6,1.15,1.15,0,0,1,.92,1.13,2.92,2.92,0,0,1-.92,2.05c-1.08,1.17-2.19,2.32-3.32,3.44a1.19,1.19,0,0,0-.29,1.12h6.33V91.94H28Z" fill="#fff"/><path d="M52.31,84.36H52c-1.55,0-3.1,0-4.64,0-.3,0-.42.1-.4.4s0,.41,0,.62c0,.54,0,.54.53.54h2.92c.12,0,.24,0,.43,0L47.37,93l1.38.66a.62.62,0,0,0,.09-.1c1.36-2.75,2.72-5.5,4.05-8.26a1.61,1.61,0,0,0,0-.9C52.9,84.36,52.52,84.37,52.31,84.36Z" fill="#fff"/><path d="M85.06,93.11q0-2.13,0-4.27c0-1.39,0-2.77,0-4.16,0-.25-.06-.37-.35-.36-.56,0-1.12,0-1.69,0a.73.73,0,0,0-.8.42c-.19.38-.44.73-.7,1.14h1.28c.53,0,.53,0,.53.52q0,3.35,0,6.71c0,.11,0,.23,0,.36h1.77C85.06,93.34,85.06,93.23,85.06,93.11Z" fill="#fff"/><path d="M43.39,84.35c-.69,0-1.37,0-2.06,0a.31.31,0,0,0-.23.1c-.3.45-.58.9-.92,1.44.54,0,1,0,1.43,0s.39.09.39.39c0,2.26,0,4.52,0,6.78,0,.14,0,.27,0,.46.55,0,1.07,0,1.6,0,.06,0,.16-.18.16-.28,0-2.87,0-5.73,0-8.6C43.68,84.39,43.6,84.34,43.39,84.35Z" fill="#fff"/><path d="M57.6,89.58c0-.2-.09-.25-.27-.25H54.75c-.17,0-.25.05-.25.23q0,.52,0,1c0,.19.07.27.26.26h2.58c.18,0,.28-.05.27-.25S57.59,89.93,57.6,89.58Z" fill="#fff"/><path d="M50.77,12.77S50,31.07,41.52,46.29,24.58,71.7,23,73.14l14.6-2.82s10-12.61,12.71-27.55C52.71,29.52,51.62,16.65,50.77,12.77Z" fill="#fff"/><path d="M40.6,70.41l9-.55S53.71,56,54.26,47.53s.12-22.8-1.58-28.23c0,0,.31,8.8.14,12.46a89.47,89.47,0,0,1-4.06,21.83C45.65,64.33,40.6,70.41,40.6,70.41Z" fill="#fff"/><path d="M52.72,70.11,61,70.6S57.53,56.23,56.93,49s-2-20.19-2-20.19.35,14.77.32,16.08C54.94,58.57,52.68,71.9,52.72,70.11Z" fill="#fff"/><path d="M62.55,70.44l11.25,1A137.68,137.68,0,0,1,63,52.11c-2-4.54-7.15-21.2-7.16-21.24-.15-1,1,12.82,2.17,20C58.91,56.22,62.55,70.44,62.55,70.44Z" fill="#fff"/><path d="M75.49,71.77l12,1.32S75,62.08,69.27,54c-3.38-4.8-9.06-11.66-10-16.8s1.39,9.6,7.58,20.2C71.67,65.67,75.49,71.77,75.49,71.77Z" fill="#fff"/><text transform="translate(24.63 81.11) scale(0.86 1)" font-size="5.13" fill="#fff" font-family="SegoeUI-Bold, Segoe UI" font-weight="700">HARAK<tspan x="17.82" y="0" letter-spacing="-0.07em">A</tspan><tspan x="21.07" y="0">T</tspan><tspan x="24.07" y="0" letter-spacing="0.02em">L</tspan><tspan x="26.81" y="0" xml:space="preserve">AR  STR</tspan><tspan x="45.82" y="0" letter-spacing="-0.07em">A</tspan><tspan x="49.07" y="0">TEGI</tspan><tspan x="60.07" y="0" letter-spacing="-0.08em">Y</tspan><tspan x="62.8" y="0">ASI</tspan></text></svg>