<?xml version="1.0" encoding="utf-8"?>
<!-- Generator: Adobe Illustrator 19.2.1, SVG Export Plug-In . SVG Version: 6.00 Build 0)  -->
<svg version="1.1" id="Слой_1" xmlns="http://www.w3.org/2000/svg" xmlns:xlink="http://www.w3.org/1999/xlink" x="0px" y="0px"
	 viewBox="0 0 387 124" style="enable-background:new 0 0 387 124;" xml:space="preserve">
<style type="text/css">
	.st0{fill:#FFFFFF;}
	.st1{fill:none;stroke:#2E3192;stroke-miterlimit:10;}
	.st2{fill:#424376;}
	.st3{enable-background:new    ;}
	.st4{fill:#57CDFB;}
	.st5{display:none;fill:#FFFFFF;}
	.st6{fill:none;}
</style>
<title>virtual</title>
<a href="https://developer.mozilla.org/en-US/docs/SVG"
<g>
	<g id="Слой_1_1_">
		
			<image style="overflow:visible;opacity:0.35;enable-background:new    ;" width="277" height="107" xlink:href="1396A8E7.png"  transform="matrix(1 0 0 1 110 9)">
		</image>
		<g>
			<rect x="120" y="18.7" class="st0" width="257" height="87.5"/>
		</g>
		<rect x="120" y="18.7" class="st1" width="257" height="87.5"/>
		<image style="overflow:visible;opacity:0.35;enable-background:new    ;" width="153" height="124" xlink:href="1396A8E5.png" >
		</image>
		<polygon class="st2" points="122.4,115 9.8,115 9.8,9.4 143.7,9.4 		"/>
		<g class="st3">
			<path class="st2" d="M176.8,36.1c0.6,0,0.8,0.3,0.6,0.9l-6.1,17.5c-0.2,0.6-0.5,0.8-1.1,0.8h-1.4c-0.6,0-0.9-0.2-1.1-0.7
				l-6.2-17.5c-0.2-0.6,0-0.9,0.6-0.9h1.3c1.1,0,1.4,0.2,1.6,0.8l3.7,11.5c0.4,1.3,0.7,2.8,0.7,2.9h0.2c0,0,0.3-1.7,0.7-2.8
				l3.7-11.5c0.2-0.6,0.5-0.8,1.6-0.8H176.8z"/>
			<path class="st2" d="M180.5,36c1.2,0,1.6,0.4,1.6,1.6v0.2c0,1.3-0.4,1.6-1.6,1.6h-0.2c-1.2,0-1.6-0.4-1.6-1.6v-0.2
				c0-1.2,0.4-1.6,1.6-1.6H180.5z M181.1,41.2c0.6,0,0.8,0.2,0.8,0.8v12.3c0,0.6-0.2,0.8-0.8,0.8h-1.4c-0.6,0-0.8-0.2-0.8-0.8V42
				c0-0.6,0.2-0.8,0.8-0.8H181.1z"/>
			<path class="st2" d="M191.4,40.8c0.6,0,0.8,0.2,0.8,0.8v1.2c0,0.6-0.2,0.8-0.8,0.8h-0.9c-0.9,0-1.8,0.1-2.4,0.3
				c-0.2,0-0.3,0.1-0.3,0.3v10c0,0.6-0.2,0.8-0.8,0.8h-1.4c-0.6,0-0.8-0.2-0.8-0.8V43.2c0-0.9,0.2-1.2,1-1.5
				c1.3-0.5,2.8-0.8,4.8-0.8H191.4z"/>
			<path class="st2" d="M197.3,38c0.6,0,0.8,0.2,0.8,0.8v2.4h2.9c0.6,0,0.8,0.2,0.8,0.8v1.2c0,0.6-0.2,0.8-0.8,0.8h-2.9v5.4
				c0,1.3,0.2,2.1,0.6,2.5c0.4,0.4,1.2,0.6,2.3,0.6c0.6,0,0.8,0.2,0.8,0.8v1.2c0,0.6-0.2,0.8-0.8,0.9c-2.2,0.1-3.7-0.3-4.5-1.2
				c-0.9-0.9-1.3-2.5-1.3-4.8v-5.5h-1.8c-0.6,0-0.8-0.2-0.8-0.8V42c0-0.6,0.2-0.8,0.8-0.8h1.8v-2.4c0-0.6,0.2-0.8,0.8-0.8H197.3z"/>
			<path class="st2" d="M214.3,41.2c0.6,0,0.8,0.2,0.8,0.8v11.1c0,0.9-0.2,1.2-1,1.5c-1.5,0.6-3.2,0.9-5,0.9c-3.6,0-5.4-1.9-5.4-5.4
				V42c0-0.6,0.2-0.8,0.8-0.8h1.4c0.6,0,0.8,0.2,0.8,0.8v8c0,1.8,0.9,2.7,2.8,2.7c0.9,0,1.7-0.1,2.4-0.3c0.2-0.1,0.3-0.2,0.3-0.5V42
				c0-0.6,0.2-0.8,0.8-0.8H214.3z"/>
			<path class="st2" d="M223.1,40.8c3.7,0,5.5,1.9,5.5,5.6v7c0,0.9-0.2,1.2-0.9,1.5c-1,0.5-2.6,0.7-4.6,0.7c-2.2,0-3.7-0.4-4.5-1.1
				c-0.8-0.7-1.2-1.8-1.2-3.3c0-3.2,1.6-4.3,5.8-4.3c0.2,0,1,0.1,2.5,0.1v-0.8c0-1.8-0.7-2.7-2.6-2.7c-1.3,0-2.2,0.4-2.7,1.3
				c-0.4,0.6-0.5,0.6-1.1,0.4l-1-0.5c-0.6-0.3-0.7-0.7-0.4-1.2C218.7,41.8,220.5,40.8,223.1,40.8z M225.6,49.6
				c-1.8-0.1-2.7-0.1-2.8-0.1c-1.8,0-2.5,0.6-2.5,1.8c0,1.2,0.5,1.8,2.4,1.8c1.1,0,1.9-0.1,2.6-0.2c0.2-0.1,0.3-0.2,0.3-0.4V49.6z"
				/>
			<path class="st2" d="M234.4,54.4c0,0.6-0.2,0.8-0.8,0.8h-1.4c-0.6,0-0.8-0.2-0.8-0.8V36.1c0-0.6,0.2-0.8,0.8-0.8h1.4
				c0.6,0,0.8,0.2,0.8,0.8V54.4z"/>
			<path class="st2" d="M253.1,41.7c0.8,0.4,0.9,0.6,0.9,1.5v17.2c0,0.6-0.2,0.8-0.8,0.8h-1.4c-0.6,0-0.8-0.2-0.8-0.8v-5.2
				c-1.2,0.4-2.2,0.5-3.1,0.5c-3.6,0-5.3-1.9-5.3-5.4v-3.7c0-3.8,1.9-5.7,5.8-5.7C250.4,40.8,251.9,41.1,253.1,41.7z M245.6,50.1
				c0,1.7,1,2.6,2.8,2.6c0.7,0,1.6-0.1,2.6-0.4v-8c0-0.2-0.1-0.3-0.3-0.4c-0.6-0.2-1.4-0.3-2.1-0.3c-2,0-3,1-3,2.9V50.1z"/>
			<path class="st2" d="M262,40.8c3.7,0,5.5,1.9,5.5,5.6v7c0,0.9-0.2,1.2-0.9,1.5c-1,0.5-2.6,0.7-4.6,0.7c-2.2,0-3.7-0.4-4.5-1.1
				c-0.8-0.7-1.2-1.8-1.2-3.3c0-3.2,1.6-4.3,5.8-4.3c0.2,0,1,0.1,2.5,0.1v-0.8c0-1.8-0.7-2.7-2.6-2.7c-1.3,0-2.2,0.4-2.7,1.3
				c-0.4,0.6-0.5,0.6-1.1,0.4l-1-0.5c-0.6-0.3-0.7-0.7-0.4-1.2C257.6,41.8,259.4,40.8,262,40.8z M264.5,49.6
				c-1.8-0.1-2.7-0.1-2.8-0.1c-1.8,0-2.5,0.6-2.5,1.8c0,1.2,0.5,1.8,2.4,1.8c1.1,0,1.9-0.1,2.6-0.2c0.2-0.1,0.3-0.2,0.3-0.4V49.6z"
				/>
			<path class="st2" d="M272.4,35.2c0.6,0,0.8,0.2,0.8,0.8v5.2c1.3-0.3,2.3-0.5,3.1-0.5c3.6,0,5.3,1.8,5.3,5.4v3.6
				c0,3.8-1.9,5.7-5.8,5.7c-1.8,0-3.4-0.3-4.6-0.9c-0.8-0.4-0.9-0.6-0.9-1.5V36.1c0-0.6,0.2-0.8,0.8-0.8H272.4z M278.6,46.3
				c0-1.7-1-2.6-2.8-2.6c-0.8,0-1.7,0.2-2.6,0.5v8c0,0.1,0.1,0.2,0.2,0.3c0.6,0.2,1.3,0.3,2.2,0.3c2,0,3-1,3-2.9V46.3z"/>
			<path class="st2" d="M294.6,41.2c0.6,0,0.8,0.2,0.8,0.8v11.1c0,0.9-0.2,1.2-1,1.5c-1.5,0.6-3.2,0.9-5,0.9c-3.6,0-5.4-1.9-5.4-5.4
				V42c0-0.6,0.2-0.8,0.8-0.8h1.4c0.6,0,0.8,0.2,0.8,0.8v8c0,1.8,0.9,2.7,2.8,2.7c0.9,0,1.7-0.1,2.4-0.3c0.2-0.1,0.3-0.2,0.3-0.5V42
				c0-0.6,0.2-0.8,0.8-0.8H294.6z"/>
			<path class="st2" d="M301.4,54.4c0,0.6-0.2,0.8-0.8,0.8h-1.4c-0.6,0-0.8-0.2-0.8-0.8V36.1c0-0.6,0.2-0.8,0.8-0.8h1.4
				c0.6,0,0.8,0.2,0.8,0.8V54.4z"/>
		</g>
		<g class="st3">
			<path class="st2" d="M314.9,41.2c0.8,0,0.9,0.3,0.5,1l-3.8,5.8l4.1,6.2c0.4,0.6,0.3,1-0.6,1h-1.2c-0.8,0-1.1-0.1-1.4-0.7
				l-2.8-4.2l-2.6,4.2c-0.4,0.6-0.6,0.7-1.4,0.7h-1.2c-0.9,0-1.1-0.3-0.6-1l4.1-6.2l-3.9-5.8c-0.4-0.6-0.2-1,0.6-1h1.2
				c0.9,0,1.1,0.1,1.5,0.7l2.5,3.8l2.5-3.8c0.4-0.6,0.5-0.7,1.4-0.7H314.9z"/>
		</g>
		<g class="st3">
			<path class="st2" d="M316.7,46.2c0-3.4,2.1-5.4,5.9-5.4c3.8,0,5.9,2,5.9,5.4v4c0,3.4-2.1,5.4-5.9,5.4c-3.8,0-5.9-2-5.9-5.4V46.2z
				 M325.5,46.2c0-1.6-1.1-2.6-3-2.6s-2.9,0.9-2.9,2.6v4c0,1.6,1.1,2.6,2.9,2.6s3-0.9,3-2.6V46.2z"/>
			<path class="st2" d="M337,40.8c3.6,0,5.3,1.9,5.3,5.4v8.1c0,0.6-0.2,0.8-0.8,0.8h-1.4c-0.6,0-0.8-0.2-0.8-0.8v-8
				c0-1.8-0.9-2.6-2.8-2.6c-0.8,0-1.6,0.1-2.5,0.4c-0.1,0.1-0.2,0.1-0.2,0.3v10.1c0,0.6-0.2,0.8-0.8,0.8h-1.4
				c-0.6,0-0.8-0.2-0.8-0.8V43.3c0-0.9,0.2-1.2,1-1.5C333.4,41.1,335.1,40.8,337,40.8z"/>
			<path class="st2" d="M350.3,40.8c3.7,0,5.5,1.9,5.5,5.6v7c0,0.9-0.2,1.2-0.9,1.5c-1,0.5-2.6,0.7-4.6,0.7c-2.2,0-3.7-0.4-4.5-1.1
				c-0.8-0.7-1.2-1.8-1.2-3.3c0-3.2,1.6-4.3,5.8-4.3c0.2,0,1,0.1,2.5,0.1v-0.8c0-1.8-0.7-2.7-2.6-2.7c-1.3,0-2.2,0.4-2.7,1.3
				c-0.4,0.6-0.5,0.6-1.1,0.4l-1-0.5c-0.6-0.3-0.7-0.7-0.4-1.2C345.9,41.8,347.7,40.8,350.3,40.8z M352.8,49.6
				c-1.8-0.1-2.7-0.1-2.8-0.1c-1.8,0-2.5,0.6-2.5,1.8c0,1.2,0.5,1.8,2.4,1.8c1.1,0,1.9-0.1,2.6-0.2c0.2-0.1,0.3-0.2,0.3-0.4V49.6z"
				/>
		</g>
		<g class="st3">
			<path class="st4" d="M185.6,74.3c2.5,0,3.7,1.6,3.7,4.8v7.3c0,0.6-0.1,0.7-0.6,0.7h-1c-0.4,0-0.6-0.2-0.6-0.7v-7.2
				c0-1.6-0.6-2.3-1.8-2.3c-0.6,0-1.2,0.1-1.8,0.4c0.1,0.5,0.2,1.1,0.2,1.8v7.3c0,0.6-0.1,0.7-0.6,0.7h-1c-0.4,0-0.6-0.2-0.6-0.7
				v-7.2c0-1.6-0.6-2.3-1.8-2.3c-0.5,0-1,0.1-1.5,0.3c-0.1,0-0.1,0.1-0.1,0.3v8.9c0,0.6-0.1,0.7-0.6,0.7h-1c-0.4,0-0.6-0.2-0.6-0.7
				v-9.9c0-0.8,0.1-1.1,0.7-1.4c1-0.6,2.2-0.8,3.4-0.8c1,0,1.8,0.3,2.3,0.8C183.3,74.6,184.4,74.3,185.6,74.3z"/>
			<path class="st4" d="M199,74.7c0.4,0,0.6,0.2,0.6,0.7v9.9c0,0.8-0.1,1-0.7,1.3c-1.1,0.6-2.3,0.8-3.7,0.8c-2.6,0-3.9-1.7-3.9-4.8
				v-7.2c0-0.6,0.1-0.7,0.6-0.7h1c0.4,0,0.6,0.2,0.6,0.7v7.2c0,1.6,0.7,2.4,2,2.4c0.7,0,1.2-0.1,1.7-0.3c0.1-0.1,0.2-0.2,0.2-0.4
				v-8.8c0-0.6,0.2-0.7,0.6-0.7H199z"/>
		</g>
		<g class="st3">
			<path class="st4" d="M206.4,74.3c0.4,0,0.6,0.2,0.6,0.7v1.1c0,0.6-0.1,0.7-0.6,0.7h-0.7c-0.7,0-1.3,0.1-1.8,0.3
				c-0.1,0-0.2,0.1-0.2,0.3v8.9c0,0.6-0.1,0.7-0.6,0.7h-1c-0.4,0-0.6-0.2-0.6-0.7v-10c0-0.8,0.1-1.1,0.7-1.4
				c0.9-0.4,2.1-0.7,3.5-0.7H206.4z"/>
		</g>
		<g class="st3">
			<path class="st4" d="M207.7,79.1c0-3,1.6-4.8,4.3-4.8c2.8,0,4.3,1.8,4.3,4.8v3.6c0,3-1.6,4.8-4.3,4.8c-2.8,0-4.3-1.8-4.3-4.8
				V79.1z M214.2,79.1c0-1.5-0.8-2.3-2.2-2.3c-1.4,0-2.1,0.8-2.1,2.3v3.6c0,1.4,0.8,2.3,2.1,2.3c1.4,0,2.2-0.8,2.2-2.3V79.1z"/>
			<path class="st4" d="M219.8,74.7c0.4,0,0.6,0.2,0.6,0.7v11.9c0,3.6-1.4,5.4-4.3,5.4c-0.4,0-0.6-0.2-0.6-0.8v-1.1
				c0-0.6,0.2-0.8,0.6-0.8c1.5,0,2.1-1,2.1-2.8V75.4c0-0.6,0.1-0.7,0.6-0.7H219.8z M219.4,70c0.9,0,1.1,0.4,1.1,1.4v0.2
				c0,1.1-0.3,1.5-1.1,1.5h-0.1c-0.9,0-1.1-0.3-1.1-1.5v-0.2c0-1.1,0.3-1.4,1.1-1.4H219.4z"/>
			<path class="st4" d="M226.3,74.3c2.7,0,4,1.7,4,4.9v6.2c0,0.8-0.2,1.1-0.7,1.4c-0.7,0.4-1.9,0.6-3.4,0.6c-1.6,0-2.7-0.3-3.3-1
				c-0.6-0.6-0.9-1.6-0.9-2.9c0-2.9,1.2-3.9,4.3-3.9c0.1,0,0.7,0,1.8,0.1v-0.7c0-1.6-0.5-2.4-1.9-2.4c-0.9,0-1.6,0.4-2,1.2
				c-0.3,0.5-0.4,0.6-0.8,0.4l-0.7-0.4c-0.4-0.2-0.5-0.6-0.3-1.1C223.1,75.2,224.4,74.3,226.3,74.3z M228.1,82.1
				c-1.3-0.1-2-0.1-2-0.1c-1.3,0-1.8,0.5-1.8,1.6c0,1.1,0.4,1.6,1.8,1.6c0.8,0,1.4-0.1,1.9-0.2c0.1-0.1,0.2-0.2,0.2-0.3V82.1z"/>
		</g>
		<g class="st3">
			<path class="st4" d="M236,74.3c2.7,0,4,1.7,4,4.9v6.2c0,0.8-0.2,1.1-0.7,1.4c-0.7,0.4-1.9,0.6-3.4,0.6c-1.6,0-2.7-0.3-3.3-1
				c-0.6-0.6-0.9-1.6-0.9-2.9c0-2.9,1.2-3.9,4.3-3.9c0.1,0,0.7,0,1.8,0.1v-0.7c0-1.6-0.5-2.4-1.9-2.4c-0.9,0-1.6,0.4-2,1.2
				c-0.3,0.5-0.4,0.6-0.8,0.4l-0.7-0.4c-0.4-0.2-0.5-0.6-0.3-1.1C232.8,75.2,234.1,74.3,236,74.3z M237.8,82.1c-1.3-0.1-2-0.1-2-0.1
				c-1.3,0-1.8,0.5-1.8,1.6c0,1.1,0.4,1.6,1.8,1.6c0.8,0,1.4-0.1,1.9-0.2c0.1-0.1,0.2-0.2,0.2-0.3V82.1z"/>
		</g>
		<g class="st3">
			<path class="st4" d="M244.4,71.8c0.4,0,0.6,0.2,0.6,0.7v2.2h2.1c0.4,0,0.6,0.2,0.6,0.7v1.1c0,0.6-0.1,0.7-0.6,0.7H245v4.8
				c0,1.1,0.2,1.9,0.5,2.2c0.3,0.4,0.8,0.5,1.7,0.5c0.4,0,0.6,0.2,0.6,0.7v1.1c0,0.6-0.1,0.7-0.6,0.8c-1.6,0.1-2.7-0.3-3.3-1.1
				c-0.7-0.8-1-2.2-1-4.2v-4.9h-1.3c-0.4,0-0.6-0.2-0.6-0.7v-1.1c0-0.6,0.1-0.7,0.6-0.7h1.3v-2.2c0-0.6,0.1-0.7,0.6-0.7H244.4z"/>
			<path class="st4" d="M250.3,84c0.9,0,1.2,0.4,1.2,1.5v0.2c0,1.2-0.3,1.5-1.2,1.5h-0.1c-0.9,0-1.2-0.4-1.2-1.5v-0.2
				c0-1.2,0.3-1.5,1.2-1.5H250.3z"/>
			<path class="st4" d="M257.2,74.3c2,0,3.4,0.9,4,2.6c0.2,0.5,0.1,0.8-0.3,1.1l-0.8,0.4c-0.4,0.2-0.5,0.2-0.8-0.3
				c-0.4-0.8-1-1.2-2-1.2c-1.2,0-1.8,0.4-1.8,1.3c0,1.1,0.6,1.3,2.2,1.5c2.5,0.3,3.8,1.2,3.8,3.9c0,2.4-1.4,4-4,4
				c-2.2,0-3.6-1-4.2-2.9c-0.1-0.5,0-0.8,0.4-1l0.8-0.3c0.4-0.2,0.6-0.1,0.8,0.5c0.3,0.9,1,1.3,2.1,1.3c1.3,0,2-0.5,2-1.4
				c0-1.1-0.6-1.3-2.2-1.5c-0.9-0.1-1.4-0.2-2.1-0.6c-0.4-0.2-0.7-0.4-0.9-0.6c-0.4-0.5-0.8-1.4-0.8-2.6
				C253.3,75.8,254.6,74.3,257.2,74.3z"/>
			<path class="st4" d="M264,70c0.9,0,1.1,0.4,1.1,1.4v0.2c0,1.1-0.3,1.5-1.1,1.5h-0.1c-0.8,0-1.1-0.3-1.1-1.5v-0.2
				c0-1.1,0.3-1.4,1.1-1.4H264z M264.5,74.7c0.4,0,0.6,0.2,0.6,0.7v11c0,0.6-0.1,0.7-0.6,0.7h-1c-0.4,0-0.6-0.2-0.6-0.7v-11
				c0-0.6,0.1-0.7,0.6-0.7H264.5z"/>
		</g>
		<g class="st3">
			<path class="st4" d="M272,74.3c0.4,0,0.6,0.2,0.6,0.7v1.1c0,0.6-0.1,0.7-0.6,0.7h-0.7c-0.7,0-1.3,0.1-1.8,0.3
				c-0.1,0-0.2,0.1-0.2,0.3v8.9c0,0.6-0.1,0.7-0.6,0.7h-1c-0.4,0-0.6-0.2-0.6-0.7v-10c0-0.8,0.1-1.1,0.7-1.4
				c0.9-0.4,2.1-0.7,3.5-0.7H272z"/>
		</g>
		<g class="st3">
			<path class="st4" d="M273.3,79.3c0-3.3,1.3-5,3.9-5c0.6,0,1.3,0.1,2.2,0.3v-4.5c0-0.6,0.1-0.7,0.6-0.7h1c0.4,0,0.6,0.2,0.6,0.7
				v15.3c0,0.8-0.2,1-0.7,1.3c-1.1,0.5-2.2,0.8-3.5,0.8c-2.7,0-4.1-1.6-4.1-4.8V79.3z M279.5,77.2c-0.7-0.2-1.3-0.3-1.8-0.3
				c-1.4,0-2.2,0.8-2.2,2.5v3.1c0,1.6,0.7,2.4,2.1,2.4c0.7,0,1.2-0.1,1.7-0.3c0.1,0,0.2-0.1,0.2-0.3V77.2z"/>
			<path class="st4" d="M287.5,74.3c2.7,0,4,1.7,4,4.9v6.2c0,0.8-0.2,1.1-0.7,1.4c-0.7,0.4-1.9,0.6-3.4,0.6c-1.6,0-2.7-0.3-3.3-1
				c-0.6-0.6-0.9-1.6-0.9-2.9c0-2.9,1.2-3.9,4.3-3.9c0.1,0,0.7,0,1.8,0.1v-0.7c0-1.6-0.5-2.4-1.9-2.4c-0.9,0-1.6,0.4-2,1.2
				c-0.3,0.5-0.4,0.6-0.8,0.4l-0.7-0.4c-0.4-0.2-0.5-0.6-0.3-1.1C284.3,75.2,285.6,74.3,287.5,74.3z M289.3,82.1
				c-1.3-0.1-2-0.1-2-0.1c-1.3,0-1.8,0.5-1.8,1.6c0,1.1,0.4,1.6,1.8,1.6c0.8,0,1.4-0.1,1.9-0.2c0.1-0.1,0.2-0.2,0.2-0.3V82.1z"/>
			<path class="st4" d="M298.2,74.3c0.4,0,0.6,0.2,0.6,0.7v1.1c0,0.6-0.1,0.7-0.6,0.7h-0.7c-0.7,0-1.3,0.1-1.8,0.3
				c-0.1,0-0.2,0.1-0.2,0.3v8.9c0,0.6-0.1,0.7-0.6,0.7h-1c-0.4,0-0.6-0.2-0.6-0.7v-10c0-0.8,0.1-1.1,0.7-1.4
				c0.9-0.4,2.1-0.7,3.5-0.7H298.2z"/>
			<path class="st4" d="M307.8,74.7c0.4,0,0.6,0.2,0.6,0.7v12.1c0,3.3-1.3,5.2-4.1,5.2c-1.9,0-3.2-0.8-3.9-2.3
				c-0.3-0.5-0.2-0.9,0.2-1.2l0.7-0.5c0.5-0.3,0.7-0.2,0.9,0.3c0.4,0.8,1,1.2,2,1.2c1.3,0,2-0.9,2-2.6v-1.1
				c-0.8,0.2-1.5,0.3-2.2,0.3c-2.6,0-3.9-1.7-3.9-4.8v-6.6c0-0.6,0.1-0.7,0.6-0.7h1c0.4,0,0.6,0.2,0.6,0.7v6.6c0,1.6,0.7,2.4,2,2.4
				c0.6,0,1.3-0.1,1.9-0.3v-8.6c0-0.6,0.2-0.7,0.6-0.7H307.8z"/>
			<path class="st4" d="M310.1,79.1c0-3,1.6-4.8,4.3-4.8c2.8,0,4.3,1.8,4.3,4.8v3.6c0,3-1.6,4.8-4.3,4.8c-2.8,0-4.3-1.8-4.3-4.8
				V79.1z M316.6,79.1c0-1.5-0.8-2.3-2.2-2.3c-1.4,0-2.1,0.8-2.1,2.3v3.6c0,1.4,0.8,2.3,2.1,2.3c1.4,0,2.2-0.8,2.2-2.3V79.1z"/>
			<path class="st4" d="M321.7,84c0.9,0,1.2,0.4,1.2,1.5v0.2c0,1.2-0.3,1.5-1.2,1.5h-0.1c-0.9,0-1.2-0.4-1.2-1.5v-0.2
				c0-1.2,0.3-1.5,1.2-1.5H321.7z"/>
			<path class="st4" d="M332.5,74.7c0.4,0,0.6,0.2,0.6,0.7v9.9c0,0.8-0.1,1-0.7,1.3c-1.1,0.6-2.3,0.8-3.7,0.8
				c-2.6,0-3.9-1.7-3.9-4.8v-7.2c0-0.6,0.1-0.7,0.6-0.7h1c0.4,0,0.6,0.2,0.6,0.7v7.2c0,1.6,0.7,2.4,2,2.4c0.7,0,1.2-0.1,1.7-0.3
				c0.1-0.1,0.2-0.2,0.2-0.4v-8.8c0-0.6,0.2-0.7,0.6-0.7H332.5z"/>
			<path class="st4" d="M341.8,84.6c0.4,0,0.6,0.2,0.6,0.7v1c0,0.6-0.1,0.7-0.6,0.7h-6.6c-0.4,0-0.6-0.2-0.6-0.7v-1
				c0-0.3,0.1-0.6,0.2-0.7l4.6-7.4h-4.1c-0.4,0-0.6-0.2-0.6-0.7v-1.1c0-0.6,0.1-0.7,0.6-0.7h6.4c0.4,0,0.6,0.2,0.6,0.7v1.1
				c0,0.3-0.1,0.6-0.2,0.8l-4.6,7.3H341.8z"/>
		</g>
		<g>
			<path class="st5" d="M88.7,40.7c-6.1-5.9-14.2-9.2-22.7-9.2l0,0c-18,0-32.6,14.6-32.6,32.6S48,96.7,66,96.7l0,0l0,0
				c18,0,32.6-14.6,32.6-32.6C98.6,55.3,95.1,46.8,88.7,40.7z M67.1,52.2c4.5,0,8.4-0.2,11.8-0.5c0.8,3.7,1.2,7.5,1.2,11.4h-13
				C67.1,63,67.1,52.2,67.1,52.2z M67.1,50V33.8c1.3,0.3,2.5,0.9,3.6,1.7c2,1.7,3.6,3.8,4.7,6.2c1.3,2.5,2.2,5.1,2.9,7.8
				C75.2,49.8,71.4,50,67.1,50z M65,33.8V50c-4.3,0-8-0.2-11.2-0.5c0.6-2.5,1.5-4.8,2.6-7.1C58.7,37.4,61.8,34.4,65,33.8z M65,52.2
				V63H52c0.1-3.8,0.5-7.6,1.3-11.3C56.5,52,60.4,52.2,65,52.2z M49.8,63H35.6c0.2-4.8,1.5-9.5,3.8-13.7c3.8,1.1,7.7,1.8,11.6,2.1
				C50.2,55.3,49.8,59.1,49.8,63z M49.8,65.2c0,3.9,0.4,7.8,1.2,11.6c-3.9,0.4-7.8,1.1-11.6,2.1c-2.3-4.2-3.6-8.9-3.8-13.7
				C35.6,65.2,49.8,65.2,49.8,65.2z M51.9,65.2H65V76c-4.5,0-8.4,0.2-11.8,0.5C52.5,72.8,52,69,51.9,65.2L51.9,65.2z M64.9,78.2
				v16.2c-1.3-0.3-2.5-0.9-3.6-1.7c-2-1.7-3.6-3.8-4.7-6.2c-1.3-2.5-2.2-5.1-2.9-7.8C56.9,78.4,60.6,78.2,64.9,78.2L64.9,78.2z
				 M67.1,94.4V78.2c4.3,0,8,0.2,11.2,0.5c-0.6,2.5-1.5,4.8-2.6,7.1C73.4,90.8,70.3,93.8,67.1,94.4L67.1,94.4z M67.1,76V65.2h13
				c-0.1,3.8-0.5,7.6-1.3,11.3C75.6,76.2,71.7,76,67.1,76L67.1,76z M82.3,65.2h14.2c-0.2,4.8-1.5,9.5-3.8,13.7
				c-3.8-1.1-7.7-1.8-11.7-2.1C81.8,72.9,82.2,69.1,82.3,65.2z M82.3,63c-0.1-3.9-0.5-7.7-1.3-11.5c3.9-0.4,7.8-1.1,11.6-2.1
				c2.3,4.2,3.7,8.9,3.8,13.7H82.3V63z M87.2,42.3c1.6,1.6,3,3.3,4.3,5.1c-3.6,0.9-7.3,1.6-11,1.9c-0.7-3-1.8-5.9-3.2-8.6
				c-1.1-2.3-2.7-4.5-4.6-6.3C78.2,35.7,83.2,38.4,87.2,42.3L87.2,42.3z M44.2,42.9c4.1-4.2,9.4-7.2,15.1-8.5c-2.1,2-3.8,4.4-4.9,7
				c-1.2,2.5-2.1,5.2-2.8,7.9c-3.7-0.3-7.4-1-11-1.9C41.7,45.8,42.9,44.3,44.2,42.9L44.2,42.9z M44.9,85.9c-1.6-1.6-3-3.3-4.3-5.1
				c3.6-0.9,7.3-1.6,11-1.9c0.7,3,1.8,5.9,3.2,8.6c1.1,2.3,2.7,4.5,4.6,6.3C53.9,92.5,48.9,89.8,44.9,85.9L44.9,85.9z M87.9,85.3
				c-4.1,4.2-9.4,7.2-15.1,8.5c2.1-2,3.8-4.4,4.9-7c1.2-2.5,2.1-5.2,2.8-7.9c3.7,0.3,7.4,1,10.9,1.9C90.4,82.4,89.2,83.9,87.9,85.3
				L87.9,85.3z"/>
		</g>
	</g>
</g>

      target="_blank">
<g>
	<g>
		<line class="st6" x1="44.4" y1="68.4" x2="44.4" y2="85.1"/>
		<rect x="43.6" y="68.4" class="st0" width="1.6" height="16.7"/>
	</g>
	<g>
		<path class="st0" d="M43.8,81.9c-1.4-0.1-4.4-2.5-5.3-3.2l-0.3-0.2V63.8l0.2-0.2c4.6-6,12.6-5.2,13-5.2L51.2,60
			c-0.1,0-7.3-0.7-11.3,4.4v13.2c1.6,1.3,3.5,2.6,4.1,2.6L43.8,81.9z"/>
	</g>
	<g>
		<path class="st0" d="M50.2,55.8h-1.7c-2.7,0-4.9-2.2-4.9-4.9v-3.3c0-2.7,2.2-4.9,4.9-4.9h1.7c2.7,0,4.9,2.2,4.9,4.9v3.3
			C55.1,53.6,52.9,55.8,50.2,55.8z M48.5,44.3c-1.8,0-3.3,1.5-3.3,3.3v3.3c0,1.8,1.5,3.3,3.3,3.3h1.7c1.8,0,3.3-1.5,3.3-3.3v-3.3
			c0-1.8-1.5-3.3-3.3-3.3H48.5z"/>
	</g>
	<g>
		<line class="st6" x1="91.9" y1="68.4" x2="91.9" y2="85.1"/>
		<rect x="91.1" y="68.4" class="st0" width="1.6" height="16.7"/>
	</g>
	<g>
		<path class="st0" d="M92.6,81.8l-0.1-1.6c0.5,0,2.4-1.3,3.9-2.6V64.4C92.3,59.4,85.1,60,85,60l-0.2-1.6c0.3,0,8.4-0.8,13,5.2
			c0.1,0.1,0.2,0.3,0.2,0.5V78c0,0.2-0.1,0.5-0.3,0.6C96.9,79.3,94,81.7,92.6,81.8z"/>
	</g>
	<g>
		<path class="st0" d="M69.2,52h-1.7c-2.7,0-4.9-2.2-4.9-4.9v-3.3c0-2.7,2.2-4.9,4.9-4.9h1.7c2.7,0,4.9,2.2,4.9,4.9v3.3
			C74.1,49.8,71.9,52,69.2,52z M67.5,40.6c-1.8,0-3.3,1.5-3.3,3.3v3.3c0,1.8,1.5,3.3,3.3,3.3h1.7c1.8,0,3.3-1.5,3.3-3.3v-3.3
			c0-1.8-1.5-3.3-3.3-3.3H67.5z"/>
	</g>
	<g>
		<path class="st0" d="M88.2,55.8h-1.7c-2.7,0-4.9-2.2-4.9-4.9v-3.3c0-2.7,2.2-4.9,4.9-4.9h1.7c2.7,0,4.9,2.2,4.9,4.9v3.3
			C93.1,53.6,90.9,55.8,88.2,55.8z M86.5,44.3c-1.8,0-3.3,1.5-3.3,3.3v3.3c0,1.8,1.5,3.3,3.3,3.3h1.7c1.8,0,3.3-1.5,3.3-3.3v-3.3
			c0-1.8-1.5-3.3-3.3-3.3H86.5z"/>
	</g>
	<g>
		<path class="st0" d="M87.7,84.7H48.5V64.6h39.2V84.7z M50.1,83.1H86V66.3H50.1V83.1z"/>
	</g>
	<g>
		<path class="st0" d="M81.5,62.8h-1.6v-2.4c-0.4-0.8-3-4.6-11.5-4.7c-8.5-0.1-11.5,3.9-12,4.8v2.2h-1.6v-2.6l0.1-0.2
			c0.1-0.2,3.2-6,13.6-5.8c10.4,0.1,13,5.6,13.1,5.8l0.1,0.3v2.6H81.5z"/>
	</g>
</g>
</a>
</svg>
