<svg id="Слой_1" data-name="Слой 1" xmlns="http://www.w3.org/2000/svg" xmlns:xlink="http://www.w3.org/1999/xlink" viewBox="0 0 387 124"><title>yagona</title><g id="Слой_1-2" data-name="Слой 1-2"><image width="277" height="107" transform="translate(110 9)" opacity="0.35" xlink:href="60F5BD11.png" style="isolation:isolate"/><rect x="120" y="18.7" width="257" height="87.5" fill="#fff"/><rect x="120" y="18.7" width="257" height="87.5" fill="none" stroke="#2e3192" stroke-miterlimit="10"/><image width="153" height="124" opacity="0.35" xlink:href="60F5BD10.png" style="isolation:isolate"/><polygon points="122.4 115 9.8 115 9.8 9.4 143.7 9.4 122.4 115" fill="#424376"/><path d="M154.7,84.4a1.14,1.14,0,0,0-.8-.3h-1.1v-.8a1.37,1.37,0,0,0-1.4-1.4h-.6a1.37,1.37,0,0,0-1.4,1.4V84H146v-.8a1.37,1.37,0,0,0-1.4-1.4H144a1.37,1.37,0,0,0-1.4,1.4V84h-1.1a1.11,1.11,0,0,0-1.1,1.1V96.5a1.11,1.11,0,0,0,1.1,1.1H154a1.11,1.11,0,0,0,1.1-1.1V85.2A2,2,0,0,0,154.7,84.4Zm-4.2-1.2a.32.32,0,0,1,.3-.3h.6a.32.32,0,0,1,.3.3h0v2.6a.32.32,0,0,1-.3.3h-.6a.32.32,0,0,1-.3-.3h0Zm-6.8,0a.32.32,0,0,1,.3-.3h.6a.32.32,0,0,1,.3.3h0v2.6a.32.32,0,0,1-.3.3H144a.32.32,0,0,1-.3-.3h0V83.2Zm10.2,13.3H141.4V87.4h12.5Z" fill="#424376"/><path d="M63.4,67.6s2,3.5,2.5,4.4a2.31,2.31,0,0,1,.2,2.4c-.5.9-5.4,8.2-5.9,8.8a2.18,2.18,0,0,1-2.9.1c-1.2-.9-6-4.8-5.9-6.4s.2-8.6,13.2-21.6S84.5,42.1,86.2,42.1s5.6,4.8,6.4,6a2.15,2.15,0,0,1-.1,2.9c-.7.5-8,5.3-8.9,5.9a2.81,2.81,0,0,1-2.5-.3c-.9-.5-4.4-2.5-4.4-2.5s-2.4,1.4-7.2,6.2S63.4,67.6,63.4,67.6Z" fill="none" stroke="#fff" stroke-miterlimit="10" stroke-width="2"/><ellipse cx="72.3" cy="61.8" rx="33" ry="32.9" fill="none" stroke="#fff" stroke-miterlimit="10" stroke-width="2"/></g><path d="M285,83.9a8.69,8.69,0,0,0-12.3,0h0a8.62,8.62,0,0,0-2.5,6.1,8.21,8.21,0,0,0,1.2,4.3,8.92,8.92,0,0,0,3.2,3.2,8.31,8.31,0,0,0,4.4,1.2,8.64,8.64,0,0,0,8.6-8.8A10.23,10.23,0,0,0,285,83.9Zm-.9,9.2a5.81,5.81,0,0,1-2.2,2.2,6.24,6.24,0,0,1-6.2,0,5.81,5.81,0,0,1-2.2-2.2,6.24,6.24,0,0,1,0-6.2,5.81,5.81,0,0,1,2.2-2.2,6.24,6.24,0,0,1,6.2,0,5.44,5.44,0,0,1,2.2,2.3,6.05,6.05,0,0,1,0,6.1Z" fill="#424376"/><path d="M279.9,85.7h-.7c-.2,0-.4.1-.4.3h0v4h-2.5c-.2,0-.4.1-.4.3h0V91c0,.2.1.4.3.4h3.6c.2,0,.4-.1.4-.3h0V86a.32.32,0,0,0-.3-.3Z" fill="#424376"/><text transform="translate(158.9 94.8)" font-size="12" fill="#424376" font-family="Panton-Bold, Panton" font-weight="700">Dushanba -<tspan x="60.5" y="0" letter-spacing="-0.02em"> </tspan><tspan x="62.85" y="0" letter-spacing="-0.01em">J</tspan><tspan x="69.69" y="0" letter-spacing="0em">uma</tspan></text><text transform="translate(292.4 94.8)" font-size="12" fill="#424376" font-family="Panton-Bold, Panton" font-weight="700">09:00 - 18:00</text><text transform="translate(186.77 43.1)" font-size="20.41" fill="#424376" font-family="Panton-Bold, Panton" font-weight="700"><tspan letter-spacing="-0.1em">Y</tspan><tspan x="11.02" y="0" letter-spacing="0em">agona</tspan><tspan x="65.61" y="0" letter-spacing="-0.02em"> </tspan><tspan x="69.67" y="0">tel</tspan><tspan x="93.43" y="0" letter-spacing="0em">e</tspan><tspan x="104.36" y="0" letter-spacing="-0.01em">f</tspan><tspan x="111.77" y="0" letter-spacing="0em">on</tspan></text><text transform="translate(164.3 71.73)" font-size="15" fill="#57cdfb" font-family="Panton-Bold, Panton" font-weight="700" letter-spacing="0.03em">+<tspan x="8.63" y="0" letter-spacing="0.04em">998 67</tspan><tspan x="61.08" y="0" xml:space="preserve" font-size="22.88" letter-spacing="0.04em"> 225 33 </tspan><tspan x="151.56" y="0" font-size="22.88" letter-spacing="0.03em">5</tspan><tspan x="165.9" y="0" font-size="22.88" letter-spacing="0.04em">1</tspan></text></svg>